<svg display="none"
    xmlns="http://www.w3.org/2000/svg">
    <symbol width="35" height="37" viewBox="0 0 35 37" id="logo-icon">
       <path d="M31.1473 13.6477L31.1255 13.626C31.1238 13.6247 31.1224 13.6231 31.1215 13.6212L17.5006 0L3.87983 13.6209C3.87826 13.6225 3.8758 13.6256 3.8758 13.6256L3.85333 13.6474C1.77053 15.7419 0.447586 18.4725 0.0948177 21.4052C-0.25795 24.3379 0.379698 27.3044 1.90639 29.8331C3.43309 32.3619 5.76122 34.3077 8.52069 35.3612C11.2802 36.4147 14.3126 36.5157 17.136 35.6477C17.3735 35.5751 17.6275 35.5751 17.8651 35.6477C20.6882 36.5153 23.7205 36.4144 26.4798 35.3607C29.2391 34.307 31.567 32.3613 33.0936 29.8328C34.6202 27.3042 35.2579 24.3379 34.9053 21.4054C34.5526 18.4728 33.2299 15.7422 31.1473 13.6477ZM8.7232 22.6298C8.65689 22.6961 8.6043 22.7749 8.56844 22.8615C8.53257 22.948 8.5141 23.0408 8.51412 23.1346C8.53835 25.5386 9.21776 27.8904 10.4792 29.9371C10.5079 29.9835 10.5211 30.0379 10.517 30.0922C10.513 30.1465 10.4918 30.1982 10.4566 30.2399C10.4213 30.2816 10.3738 30.311 10.3209 30.324C10.2679 30.337 10.2122 30.333 10.1616 30.3124C9.21332 29.9135 8.35182 29.3336 7.62531 28.6053C6.13646 27.1162 5.29946 25.097 5.2981 22.9912C5.29675 20.8855 6.13117 18.8652 7.61812 17.3743L17.5006 7.49273L27.3826 17.3743C28.8698 18.865 29.7045 20.8853 29.703 22.9912C29.7018 25.097 28.8647 27.1162 27.3757 28.6053C26.6492 29.3336 25.7877 29.9135 24.8396 30.3124C24.7889 30.333 24.7332 30.337 24.6802 30.324C24.6273 30.311 24.5798 30.2814 24.5445 30.2399C24.5093 30.1982 24.488 30.1465 24.484 30.092C24.4799 30.0377 24.4931 29.9833 24.5218 29.9369C25.7835 27.8904 26.4633 25.5386 26.4879 23.1346C26.4879 23.0408 26.4692 22.948 26.4332 22.8613C26.3971 22.7746 26.3444 22.696 26.2779 22.6296L21.6037 17.6717C21.5571 17.6329 21.4985 17.6116 21.4378 17.6116C21.3773 17.6116 21.3186 17.6329 21.2721 17.6717C21.2255 17.7104 21.1942 17.7644 21.1833 17.824C21.1724 17.8837 21.1828 17.945 21.2127 17.9978C23.0281 21.283 21.467 26.0017 18.8637 28.6053L18.85 28.6191C18.4907 28.9745 18.0056 29.1738 17.5002 29.1736C16.9948 29.1734 16.5098 28.9738 16.1508 28.6182L16.1382 28.6053C13.5339 26.0017 11.9736 21.2835 13.7893 17.9985C13.8192 17.9457 13.8296 17.8844 13.8187 17.8247C13.8079 17.7651 13.7764 17.7111 13.7299 17.6724C13.6834 17.6336 13.6247 17.6123 13.5642 17.6123C13.5036 17.6123 13.4449 17.6336 13.3984 17.6724L8.7232 22.6298Z"/>
    </symbol>

    <symbol width="17" height="19" viewBox="0 0 17 19" id="user-icon">
       <path fill-rule="evenodd" clip-rule="evenodd" d="M8.50001 7.34929C9.45479 7.34929 10.3705 6.97001 11.0456 6.29488C11.7207 5.61975 12.1 4.70407 12.1 3.74929C12.1 2.79451 11.7207 1.87884 11.0456 1.20371C10.3705 0.528577 9.45479 0.149292 8.50001 0.149292C7.54523 0.149292 6.62955 0.528577 5.95442 1.20371C5.27929 1.87884 4.90001 2.79451 4.90001 3.74929C4.90001 4.70407 5.27929 5.61975 5.95442 6.29488C6.62955 6.97001 7.54523 7.34929 8.50001 7.34929ZM3.39866 18.1493C1.57686 18.1493 0.0422473 16.6179 0.739418 14.9347C1.16156 13.9156 1.7803 12.9896 2.56031 12.2096C3.34032 11.4296 4.26633 10.8108 5.28547 10.3887C6.3046 9.96656 7.3969 9.74929 8.50001 9.74929C9.60311 9.74929 10.6954 9.96656 11.7145 10.3887C12.7337 10.8108 13.6597 11.4296 14.4397 12.2096C15.2197 12.9896 15.8385 13.9156 16.2606 14.9347C16.9578 16.6179 15.4232 18.1493 13.6014 18.1493H3.39866Z"/>
    </symbol>

    <symbol width="14" height="21" viewBox="0 0 14 21" id="server-icon">
       <path d="M14 7.54932C14 6.63006 13.8189 5.71981 13.4672 4.87053C13.1154 4.02125 12.5998 3.24958 11.9497 2.59957C11.2997 1.94956 10.5281 1.43394 9.67878 1.08216C8.8295 0.730377 7.91925 0.549316 7 0.549316C6.08075 0.549316 5.17049 0.730377 4.32122 1.08216C3.47194 1.43394 2.70026 1.94956 2.05025 2.59957C1.40024 3.24958 0.884626 4.02125 0.532843 4.87053C0.18106 5.71981 -1.36979e-08 6.63006 0 7.54932C0 8.93632 0.41 10.2263 1.105 11.3143H1.097C3.457 15.0093 7 20.5493 7 20.5493L12.903 11.3143H12.896C13.6164 10.1907 13.9995 8.88406 14 7.54932ZM7 10.5493C6.20435 10.5493 5.44129 10.2332 4.87868 9.67064C4.31607 9.10803 4 8.34497 4 7.54932C4 6.75367 4.31607 5.99061 4.87868 5.428C5.44129 4.86539 6.20435 4.54932 7 4.54932C7.79565 4.54932 8.55871 4.86539 9.12132 5.428C9.68393 5.99061 10 6.75367 10 7.54932C10 8.34497 9.68393 9.10803 9.12132 9.67064C8.55871 10.2332 7.79565 10.5493 7 10.5493Z"/>
    </symbol>

    <symbol width="21" height="19" viewBox="0 0 21 19" id="location-icon">
       <path d="M18.5 0.549316H2.5C1.96957 0.549316 1.46086 0.76003 1.08579 1.1351C0.710714 1.51018 0.5 2.01888 0.5 2.54932V6.54932C0.5 7.07975 0.710714 7.58846 1.08579 7.96353C1.46086 8.3386 1.96957 8.54932 2.5 8.54932H18.5C19.0304 8.54932 19.5391 8.3386 19.9142 7.96353C20.2893 7.58846 20.5 7.07975 20.5 6.54932V2.54932C20.5 2.01888 20.2893 1.51018 19.9142 1.1351C19.5391 0.76003 19.0304 0.549316 18.5 0.549316ZM13.5 4.54932C13.5 5.1016 13.0523 5.54932 12.5 5.54932C11.9477 5.54932 11.5 5.1016 11.5 4.54932C11.5 3.99703 11.9477 3.54932 12.5 3.54932C13.0523 3.54932 13.5 3.99703 13.5 4.54932ZM17.5 4.54932C17.5 5.1016 17.0523 5.54932 16.5 5.54932C15.9477 5.54932 15.5 5.1016 15.5 4.54932C15.5 3.99703 15.9477 3.54932 16.5 3.54932C17.0523 3.54932 17.5 3.99703 17.5 4.54932ZM18.5 10.5493H2.5C1.96957 10.5493 1.46086 10.76 1.08579 11.1351C0.710714 11.5102 0.5 12.0189 0.5 12.5493V16.5493C0.5 17.0798 0.710714 17.5885 1.08579 17.9635C1.46086 18.3386 1.96957 18.5493 2.5 18.5493H18.5C19.0304 18.5493 19.5391 18.3386 19.9142 17.9635C20.2893 17.5885 20.5 17.0798 20.5 16.5493V12.5493C20.5 12.0189 20.2893 11.5102 19.9142 11.1351C19.5391 10.76 19.0304 10.5493 18.5 10.5493ZM13.5 14.5493C13.5 15.1016 13.0523 15.5493 12.5 15.5493C11.9477 15.5493 11.5 15.1016 11.5 14.5493C11.5 13.997 11.9477 13.5493 12.5 13.5493C13.0523 13.5493 13.5 13.997 13.5 14.5493ZM17.5 14.5493C17.5 15.1016 17.0523 15.5493 16.5 15.5493C15.9477 15.5493 15.5 15.1016 15.5 14.5493C15.5 13.997 15.9477 13.5493 16.5 13.5493C17.0523 13.5493 17.5 13.997 17.5 14.5493Z"/>
    </symbol>

    <symbol width="34" height="35" viewBox="0 0 34 35" id="facebook-icon">
       <path d="M16.8 0.580566C7.5215 0.580566 0 8.10207 0 17.3806C0 26.6591 7.5215 34.1806 16.8 34.1806C26.0785 34.1806 33.6 26.6591 33.6 17.3806C33.6 8.10207 26.0785 0.580566 16.8 0.580566ZM20.7795 12.1901H18.2543C17.955 12.1901 17.6225 12.5838 17.6225 13.1071V14.9306H20.7813L20.3035 17.5311H17.6225V25.3378H14.6423V17.5311H11.9385V14.9306H14.6423V13.4011C14.6423 11.2066 16.1648 9.42332 18.2543 9.42332H20.7795V12.1901Z"/>
    </symbol>

    <symbol width="35" height="35" viewBox="0 0 35 35" id="twitter-icon">
       <path d="M17.4 0.580566C8.12148 0.580566 0.599976 8.10207 0.599976 17.3806C0.599976 26.6591 8.12148 34.1806 17.4 34.1806C26.6785 34.1806 34.2 26.6591 34.2 17.3806C34.2 8.10207 26.6785 0.580566 17.4 0.580566ZM24.2337 14.3426C24.2407 14.4861 24.2425 14.6296 24.2425 14.7696C24.2425 19.1446 20.9157 24.1863 14.8292 24.1863C13.0307 24.1893 11.2697 23.6728 9.75773 22.6988C10.015 22.7303 10.2792 22.7426 10.547 22.7426C12.0975 22.7426 13.5237 22.2158 14.656 21.3268C13.966 21.3133 13.2974 21.0848 12.7434 20.6732C12.1894 20.2617 11.7777 19.6875 11.5655 19.0308C12.061 19.125 12.5715 19.1053 13.0582 18.9731C12.3093 18.8216 11.6358 18.4158 11.152 17.8245C10.6681 17.2331 10.4037 16.4926 10.4035 15.7286V15.6883C10.8497 15.9351 11.3607 16.0856 11.9032 16.1031C11.2011 15.6357 10.7041 14.9177 10.5138 14.0961C10.3235 13.2744 10.4543 12.411 10.8795 11.6826C11.7106 12.7046 12.7472 13.5406 13.922 14.1366C15.0968 14.7326 16.3836 15.0752 17.6992 15.1423C17.532 14.4324 17.604 13.687 17.904 13.0222C18.204 12.3574 18.7153 11.8103 19.3584 11.466C20.0014 11.1218 20.7402 10.9996 21.4598 11.1185C22.1794 11.2374 22.8396 11.5907 23.3377 12.1236C24.0783 11.9771 24.7884 11.7054 25.4377 11.3203C25.1909 12.0871 24.6742 12.7381 23.9835 13.1526C24.6395 13.0736 25.28 12.8972 25.884 12.6293C25.4403 13.2941 24.8815 13.8743 24.2337 14.3426Z"/>
    </symbol>

    <symbol width="34" height="35" viewBox="0 0 34 35" id="instagram-icon">
       <path d="M22.25 17.3806C22.25 18.773 21.6968 20.1083 20.7123 21.0929C19.7277 22.0774 18.3923 22.6306 17 22.6306C15.6076 22.6306 14.2722 22.0774 13.2876 21.0929C12.3031 20.1083 11.75 18.773 11.75 17.3806C11.75 17.0813 11.7815 16.7891 11.8357 16.5056H9.99995V23.5003C9.99995 23.9868 10.3937 24.3806 10.8802 24.3806H23.1215C23.3546 24.3801 23.5781 24.2872 23.7428 24.1221C23.9075 23.9571 24 23.7335 24 23.5003V16.5056H22.1642C22.2185 16.7891 22.25 17.0813 22.25 17.3806ZM17 20.8806C17.4597 20.8805 17.9149 20.7898 18.3396 20.6137C18.7643 20.4377 19.1502 20.1797 19.4752 19.8546C19.8002 19.5294 20.058 19.1434 20.2338 18.7186C20.4096 18.2938 20.5001 17.8386 20.5 17.3788C20.4998 16.9191 20.4092 16.4639 20.2331 16.0392C20.0571 15.6145 19.7991 15.2286 19.474 14.9036C19.1488 14.5786 18.7628 14.3208 18.338 14.145C17.9132 13.9691 17.4579 13.8787 16.9982 13.8788C16.0697 13.8791 15.1793 14.2481 14.523 14.9048C13.8666 15.5615 13.498 16.4521 13.4982 17.3806C13.4984 18.3091 13.8675 19.1994 14.5242 19.8558C15.1809 20.5122 16.0715 20.8808 17 20.8806ZM21.2 13.7056H23.2982C23.4376 13.7056 23.5713 13.6503 23.6701 13.5519C23.7688 13.4535 23.8245 13.32 23.825 13.1806V11.0823C23.825 10.9426 23.7695 10.8086 23.6707 10.7098C23.5719 10.6111 23.4379 10.5556 23.2982 10.5556H21.2C21.0603 10.5556 20.9263 10.6111 20.8275 10.7098C20.7287 10.8086 20.6732 10.9426 20.6732 11.0823V13.1806C20.675 13.4693 20.9112 13.7056 21.2 13.7056ZM17 0.580566C12.5443 0.580566 8.27117 2.35056 5.12056 5.50117C1.96995 8.65178 0.199951 12.9249 0.199951 17.3806C0.199951 21.8362 1.96995 26.1094 5.12056 29.26C8.27117 32.4106 12.5443 34.1806 17 34.1806C19.2062 34.1806 21.3908 33.746 23.429 32.9017C25.4673 32.0575 27.3193 30.82 28.8794 29.26C30.4394 27.6999 31.6769 25.8479 32.5211 23.8097C33.3654 21.7714 33.8 19.5868 33.8 17.3806C33.8 15.1744 33.3654 12.9898 32.5211 10.9515C31.6769 8.91322 30.4394 7.0612 28.8794 5.50117C27.3193 3.94115 25.4673 2.70367 23.429 1.85939C21.3908 1.01511 19.2062 0.580566 17 0.580566ZM25.75 24.1863C25.75 25.2556 24.875 26.1306 23.8057 26.1306H10.1942C9.12495 26.1306 8.24995 25.2556 8.24995 24.1863V10.5748C8.24995 9.50557 9.12495 8.63057 10.1942 8.63057H23.8057C24.875 8.63057 25.75 9.50557 25.75 10.5748V24.1863Z"/>
    </symbol>

    <symbol width="33" height="22" viewBox="0 0 33 22" id="burger-icon">
        <line x1="0" y1="2" x2="33" y2="2" stroke-width="3"/>
        <line x1="0" y1="11" x2="33" y2="11" stroke-width="3"/>
        <line x1="0" y1="20" x2="33" y2="20" stroke-width="3"/>
    </symbol>

    <symbol viewBox="0 0 25 22" id="cross-icon">
        <line x1="0" y1="0" x2="25" y2="22" stroke-width="3"/>
        <line x1="0" y1="22" x2="25" y2="0" stroke-width="3"/>
    </symbol>


    </svg>